<svg xmlns="http://www.w3.org/2000/svg" viewBox="0 0 220 104" role="img" aria-label="Aegis shield emitter module">
  <defs>
    <linearGradient id="armor" x1="0" y1="0" x2="0" y2="1">
      <stop offset="0" stop-color="#35526a"/>
      <stop offset="0.48" stop-color="#132434"/>
      <stop offset="1" stop-color="#07111c"/>
    </linearGradient>
    <linearGradient id="ivory" x1="0" y1="0" x2="1" y2="1">
      <stop offset="0" stop-color="#fff4d6"/>
      <stop offset="0.5" stop-color="#bcae91"/>
      <stop offset="1" stop-color="#655f52"/>
    </linearGradient>
    <radialGradient id="core">
      <stop offset="0" stop-color="#efffff"/>
      <stop offset="0.22" stop-color="#8cecff"/>
      <stop offset="0.55" stop-color="#168ed2"/>
      <stop offset="1" stop-color="#04233d"/>
    </radialGradient>
    <filter id="glow" x="-80%" y="-80%" width="260%" height="260%">
      <feGaussianBlur stdDeviation="4" result="blur"/>
      <feMerge><feMergeNode in="blur"/><feMergeNode in="SourceGraphic"/></feMerge>
    </filter>
  </defs>
  <path d="M76 42h17l10-10v40L93 62H76zM144 42h-17l-10-10v40l10-10h17z" fill="url(#ivory)" stroke="#ad7e35" stroke-width="3"/>
  <path d="M79 48h12l6-6v20l-6-6H79zM141 48h-12l-6-6v20l6-6h12z" fill="#17354a" stroke="#5ecdf5" stroke-width="2"/>
  <g transform="translate(48 52)">
    <path d="M-27-20-17-30h34l10 10v40L17 30h-34L-27 20z" fill="url(#armor)" stroke="#b58a49" stroke-width="3"/>
    <circle r="21" fill="#091722" stroke="#4d7187" stroke-width="4"/>
    <circle r="15" fill="url(#core)" stroke="#cba45b" stroke-width="3"/>
    <circle r="8" fill="#c9fbff" filter="url(#glow)"/>
    <path d="M-17-27v10M17-27v10M-17 27V17M17 27V17" stroke="#6ee8ff" stroke-width="3"/>
  </g>
  <g transform="translate(172 52)">
    <path d="M-27-20-17-30h34l10 10v40L17 30h-34L-27 20z" fill="url(#armor)" stroke="#b58a49" stroke-width="3"/>
    <circle r="21" fill="#091722" stroke="#4d7187" stroke-width="4"/>
    <circle r="15" fill="url(#core)" stroke="#cba45b" stroke-width="3"/>
    <circle r="8" fill="#c9fbff" filter="url(#glow)"/>
    <path d="M-17-27v10M17-27v10M-17 27V17M17 27V17" stroke="#6ee8ff" stroke-width="3"/>
  </g>
</svg>
